# xmcd
#
# Track frame offsets:
#	150
#	14771
#	29875
#	43811
#	62359
#	76512
#	92369
#	108813
#	125176
#	141573
#	154921
#	181643
#	199764
#
# Disc length: 2883 seconds
#
# Revision: 1
# Processed by: cddbd v1.5.1PL0 Copyright (c) Steve Scherf et al.
# Submitted via: audiograbber 1.83.01
#
DISCID=ac0b410d
DTITLE=Klaus and Klaus - Feiern Bis Der Arzt Kommt
DYEAR=2001
DGENRE=Stimmung
TTITLE0=Die Krankenschwester
TTITLE1=Weissbier Auf Der Hütt'n
TTITLE2=Ski Heil, Bein Kaputt
TTITLE3=Voll Fette Party
TTITLE4=Schumi Gib Gummi
TTITLE5=Schön Blau (Da Ba Dee)
TTITLE6=Ganz Weit Vorn
TTITLE7=Kann Tanzen Sünde Sein
TTITLE8=Gnade
TTITLE9=Zeit Verpennt
TTITLE10=Die Krankenschwester (Extended Club-Version)
TTITLE11=Polizeistund' Kennen Wir Nicht
TTITLE12=Zeit Macht Nur Vor Dem Teufel Halt
EXTD=
EXTT0=
EXTT1=
EXTT2=
EXTT3=
EXTT4=
EXTT5=
EXTT6=
EXTT7=
EXTT8=
EXTT9=
EXTT10=
EXTT11=
EXTT12=
PLAYORDER=
